<?xml version="1.0" standalone="no"?>
<!DOCTYPE svg PUBLIC "-//W3C//DTD SVG 20010904//EN"
 "http://www.w3.org/TR/2001/REC-SVG-20010904/DTD/svg10.dtd">
<svg version="1.0" xmlns="http://www.w3.org/2000/svg"
 width="16.000000pt" height="16.000000pt" viewBox="0 0 16.000000 16.000000"
 preserveAspectRatio="xMidYMid meet">

<g transform="translate(0.000000,16.000000) scale(0.100000,-0.100000)"
fill="#000000" stroke="none">
<path d="M0 80 c0 -79 0 -80 25 -80 14 0 25 5 25 10 0 6 -7 10 -15 10 -12 0
-15 13 -15 60 0 47 3 60 15 60 8 0 15 5 15 10 0 6 -11 10 -25 10 -25 0 -25 -1
-25 -80z"/>
<path d="M110 150 c0 -5 7 -10 15 -10 12 0 15 -13 15 -60 0 -47 -3 -60 -15
-60 -8 0 -15 -4 -15 -10 0 -5 11 -10 25 -10 25 0 25 1 25 80 0 79 0 80 -25 80
-14 0 -25 -4 -25 -10z"/>
</g>
</svg>
