<?xml version="1.0" standalone="no"?>
<!DOCTYPE svg PUBLIC "-//W3C//DTD SVG 20010904//EN"
 "http://www.w3.org/TR/2001/REC-SVG-20010904/DTD/svg10.dtd">
<svg version="1.0" xmlns="http://www.w3.org/2000/svg"
 width="16.000000pt" height="16.000000pt" viewBox="0 0 16.000000 16.000000"
 preserveAspectRatio="xMidYMid meet">

<g transform="translate(0.000000,16.000000) scale(0.100000,-0.100000)"
fill="#000000" stroke="none">
<path d="M44 134 c-10 -8 -13 -12 -6 -9 8 4 26 11 40 15 22 7 23 8 6 9 -11 1
-29 -6 -40 -15z"/>
<path d="M110 136 c0 -2 8 -10 18 -17 15 -13 16 -12 3 4 -13 16 -21 21 -21 13z"/>
<path d="M99 92 c23 -33 41 -41 41 -19 0 7 -14 21 -32 32 l-32 18 23 -31z"/>
<path d="M21 88 c-1 -20 3 -26 14 -22 8 4 15 10 15 16 0 5 -4 7 -9 3 -5 -3
-12 3 -14 12 -3 11 -5 8 -6 -9z"/>
<path d="M40 45 c-10 -13 -9 -15 9 -15 12 0 21 6 21 15 0 8 -4 15 -9 15 -5 0
-14 -7 -21 -15z"/>
<path d="M100 40 c0 -13 5 -18 15 -14 19 8 19 20 0 28 -10 4 -15 -1 -15 -14z"/>
<path d="M81 34 c0 -11 3 -14 6 -6 3 7 2 16 -1 19 -3 4 -6 -2 -5 -13z"/>
</g>
</svg>
