<?xml version="1.0" standalone="no"?>
<!DOCTYPE svg PUBLIC "-//W3C//DTD SVG 20010904//EN"
 "http://www.w3.org/TR/2001/REC-SVG-20010904/DTD/svg10.dtd">
<svg version="1.0" xmlns="http://www.w3.org/2000/svg"
 width="16.000000pt" height="16.000000pt" viewBox="0 0 16.000000 16.000000"
 preserveAspectRatio="xMidYMid meet">

<g transform="translate(0.000000,16.000000) scale(0.100000,-0.100000)"
fill="#000000" stroke="none">
<path d="M44 106 c-3 -19 -1 -43 5 -53 10 -17 10 -17 11 2 0 15 2 17 9 6 7
-11 9 -11 14 0 3 9 10 1 17 -19 16 -44 19 -37 10 21 -4 26 -3 50 2 53 16 10 8
24 -14 23 -21 0 -21 -1 -4 -8 14 -5 16 -10 8 -15 -7 -4 -10 -11 -7 -16 7 -12
-20 -19 -36 -9 -8 5 -9 9 -4 9 6 0 11 9 11 20 0 32 -15 23 -22 -14z"/>
<path d="M70 15 c7 -9 15 -13 17 -11 7 7 -7 26 -19 26 -6 0 -6 -6 2 -15z"/>
</g>
</svg>
